# xmcd
#
# Track frame offsets:
#	150
#	18387
#	35150
#	55455
#	78812
#	91387
#	105575
#	123882
#	139200
#	154872
#	170245
#	192170
#	207157
#	220375
#	237440
#	253275
#	270407
#	290727
#	307912
#	323587
#
# Disc length: 4516 seconds
#
# Revision: 0
# Processed by: cddbd v1.5PL3 Copyright (c) Steve Scherf et al.
# Submitted via: dBpowerAMP V4.0
#
DISCID=2611a214
DTITLE=Julia Zenko - 20 Grandes Exitos
DYEAR=1900
DGENRE=
TTITLE0=Dale Alegria a mi Corazon
TTITLE1=La Fuerza del Amor
TTITLE2=Dame Algo de Ti
TTITLE3=Con las Alas de Alma
TTITLE4=Chocolate Caliente
TTITLE5=Viento del Sur
TTITLE6=Lia
TTITLE7=Si Pudiera Elegir
TTITLE8=Todos los Dias un Poco
TTITLE9=Cuando un Amor Termina
TTITLE10=O que Sera?
TTITLE11=Necesito Tu Amor
TTITLE12=El Breve Espacio en que no esta
TTITLE13=Razon de Vivir
TTITLE14=Quiera Abrazarte Tanto
TTITLE15=Angelitos Negros
TTITLE16=Barquitos de Papel
TTITLE17=Justos es Mas Facil
TTITLE18=La Rosa
TTITLE19=Desarma y Sangra
EXTD=
EXTT0=
EXTT1=
EXTT2=
EXTT3=
EXTT4=
EXTT5=
EXTT6=
EXTT7=
EXTT8=
EXTT9=
EXTT10=
EXTT11=
EXTT12=
EXTT13=
EXTT14=
EXTT15=
EXTT16=
EXTT17=
EXTT18=
EXTT19=
PLAYORDER=
